<svg xmlns="http://www.w3.org/2000/svg" width="29.25" height="28.125" viewBox="0 0 29.25 28.125"><defs><style>.a{fill:#a79292;}</style></defs><path class="a" d="M24.75,3.938h-.07A8,8,0,0,0,18,7.594a8,8,0,0,0-6.68-3.656h-.07a7.949,7.949,0,0,0-7.875,7.945,17.115,17.115,0,0,0,3.361,9.33C10.969,27,18,32.063,18,32.063S25.031,27,29.264,21.213a17.115,17.115,0,0,0,3.361-9.33A7.949,7.949,0,0,0,24.75,3.938Zm2.925,16.116A53.929,53.929,0,0,1,18,29.587a54.01,54.01,0,0,1-9.675-9.541,15.169,15.169,0,0,1-2.981-8.163,5.966,5.966,0,0,1,5.92-5.97h.063a5.9,5.9,0,0,1,2.89.759,6.144,6.144,0,0,1,2.137,2,1.975,1.975,0,0,0,3.3,0,6.205,6.205,0,0,1,2.138-2,5.9,5.9,0,0,1,2.89-.759h.063a5.966,5.966,0,0,1,5.92,5.97A15.361,15.361,0,0,1,27.675,20.053Z" transform="translate(-3.375 -3.938)"/></svg>