<svg xmlns="http://www.w3.org/2000/svg" width="180" height="65" viewBox="0 0 180 65"><defs><style>.a{fill:#a79292;}</style></defs><g transform="translate(-720 1245)"><path class="a" d="M294.043,226.632l-10.268-3,10.026,3.73.026.008a.385.385,0,0,0,.216-.739Z" transform="translate(547.492 -1453.437)"/><path class="a" d="M283.141,225.348l8.425,10.154.027.029a.513.513,0,1,0,.737-.715Z" transform="translate(547.73 -1454.036)"/><path class="a" d="M282.6,232.026a.374.374,0,0,0,.009.046.385.385,0,0,0,.746-.192l-1.574-6.122Z" transform="translate(548.286 -1454.177)"/><path class="a" d="M268.2,224.889a.386.386,0,0,0,.472.272l6.065-1.634-6.219.88-.046.009A.386.386,0,0,0,268.2,224.889Z" transform="translate(553.076 -1453.399)"/><path class="a" d="M274.257,214.793l-8.415-10.179-.027-.029a.513.513,0,0,0-.738.713Z" transform="translate(554.212 -1446.761)"/><path class="a" d="M293.829,207.184l.029-.026a.513.513,0,0,0-.715-.737l-9.6,9.305Z" transform="translate(547.575 -1447.402)"/><path class="a" d="M263.063,217.066l10.119,3.054-9.87-3.781-.027-.009a.385.385,0,0,0-.222.737Z" transform="translate(554.966 -1450.894)"/><path class="a" d="M289.908,220.32l.041-.009a.385.385,0,1,0-.2-.743l-6.818,1.827Z" transform="translate(547.823 -1452.02)"/><path class="a" d="M278.177,210.581l1.755,6.575-1-6.731a.321.321,0,0,0-.009-.042.385.385,0,1,0-.743.2Z" transform="translate(549.57 -1448.724)"/><path class="a" d="M282.1,215.062q1.7-4.734,3.394-9.467c.093-.25.118-.779-.313-.649-.271.082-.356.643-.426.862q-.482,1.486-.956,2.974-.936,2.928-1.848,5.863a.54.54,0,0,0-.005.3A.139.139,0,0,0,282.1,215.062Z" transform="translate(548.216 -1446.934)"/><path class="a" d="M304.317,221.283a1.137,1.137,0,0,0,1.591-.39,1.138,1.138,0,1,0-1.955-1.164A1.146,1.146,0,0,0,304.317,221.283Z" transform="translate(540.451 -1451.876)"/><path class="a" d="M265.64,230.107a.856.856,0,0,0,1.2-.294.856.856,0,1,0-1.471-.875A.863.863,0,0,0,265.64,230.107Z" transform="translate(554.164 -1455.125)"/><path class="a" d="M301.453,226.6a.612.612,0,1,0-1.051-.626.612.612,0,1,0,1.051.626Z" transform="translate(541.698 -1454.138)"/><path class="a" d="M291.96,206.794a.611.611,0,0,0,.856-.21.612.612,0,1,0-1.051-.625A.616.616,0,0,0,291.96,206.794Z" transform="translate(544.77 -1447.182)"/><path class="a" d="M292.48,216.331a.612.612,0,1,0-1.051-.626.612.612,0,1,0,1.051.626Z" transform="translate(544.889 -1450.556)"/><path class="a" d="M286.626,201.5a.611.611,0,0,0,.856-.21.612.612,0,1,0-1.051-.626A.617.617,0,0,0,286.626,201.5Z" transform="translate(546.666 -1445.349)"/><path class="a" d="M295.372,218.434a.949.949,0,1,0,1.315-.366A.962.962,0,0,0,295.372,218.434Z" transform="translate(543.49 -1451.459)"/><path class="a" d="M276.382,203.117a.952.952,0,1,0-.351-1.276A.96.96,0,0,0,276.382,203.117Z" transform="translate(550.368 -1445.695)"/><path class="a" d="M296.19,231.386a.734.734,0,1,0-1.018.285A.742.742,0,0,0,296.19,231.386Z" transform="translate(543.653 -1455.752)"/><path class="a" d="M286.8,233.188a.737.737,0,1,0,.271.986A.743.743,0,0,0,286.8,233.188Z" transform="translate(546.896 -1456.72)"/><path class="a" d="M283.718,205.653a.428.428,0,1,0-.594.166A.434.434,0,0,0,283.718,205.653Z" transform="translate(547.889 -1446.966)"/><path class="a" d="M275.934,208.994a.428.428,0,1,0-.594.166A.433.433,0,0,0,275.934,208.994Z" transform="translate(550.656 -1448.123)"/><path class="a" d="M271.795,205.482a.428.428,0,1,0-.594.166A.433.433,0,0,0,271.795,205.482Z" transform="translate(552.128 -1446.907)"/><path class="a" d="M290.36,240.555a.491.491,0,1,0,.181.657A.5.5,0,0,0,290.36,240.555Z" transform="translate(545.503 -1459.29)"/><path class="a" d="M259.589,223.775a.737.737,0,1,0-.89-.507A.744.744,0,0,0,259.589,223.775Z" transform="translate(556.504 -1452.982)"/><path class="a" d="M263.336,219.6a.43.43,0,1,0,.518.294A.433.433,0,0,0,263.336,219.6Z" transform="translate(554.964 -1452.031)"/><path class="a" d="M265.8,223.469a.491.491,0,1,0-.593-.337A.5.5,0,0,0,265.8,223.469Z" transform="translate(554.19 -1453.044)"/><path class="a" d="M266.823,201.495a.491.491,0,1,0-.593-.337A.5.5,0,0,0,266.823,201.495Z" transform="translate(553.827 -1445.412)"/><path class="a" d="M263.479,211.535a.712.712,0,0,0,.981-.233.746.746,0,0,0-.248-1.092.712.712,0,0,0-1.005.274A.729.729,0,0,0,263.479,211.535Z" transform="translate(554.934 -1448.727)"/><path class="a" d="M221.587,238.733c-.726,0-1.225.771-1.633,1.27a96.915,96.915,0,0,1-6.618,8.206c-.545.543-2.448,2.447-3.173,2.447-.454,0-.454-.679-.454-.951a18.546,18.546,0,0,1,.937-4.314c1.181-1.5,2.286-3.061,3.326-4.658a72.834,72.834,0,0,0,4.869-8.885l1.982-4.653c.55-1.6,1.139-3.173,1.649-4.776-.782,1.5-1.485,3.018-2.227,4.521l-2.292,4.467c-1.631,2.917-3.215,5.856-5.063,8.628-.178.279-.377.543-.558.819a3.156,3.156,0,0,0,.232-.986,1.946,1.946,0,0,0-1.949-1.859,1.9,1.9,0,0,0-1.723,1.27A11.008,11.008,0,0,0,208.3,241a34.357,34.357,0,0,0-1.461,6.213c-.042.06-.088.123-.125.178-1.177,1.768-4.9,6.483-6.98,6.483-.862,0-.862-1.089-.862-1.678a27.848,27.848,0,0,1,.907-6.393,7.875,7.875,0,0,0,.226-1.768c0-4.035-3.99-4.216-5.395-6.346a17.619,17.619,0,0,0,.136-2.176c0-.907-.226-3.536-1.5-3.536-1.813,0-2.675,3.672-2.675,5.077a6.33,6.33,0,0,0,1.179,3.809c-.331,2.82-1.878,5.259-3.458,7.563-1.58,2.112-4.487,5.449-6.242,5.449-.862,0-.862-1.089-.862-1.678a27.848,27.848,0,0,1,.907-6.393,7.875,7.875,0,0,0,.226-1.768c0-4.035-3.99-4.216-5.395-6.346a17.619,17.619,0,0,0,.136-2.176c0-.907-.226-3.536-1.5-3.536-1.813,0-2.675,3.672-2.675,5.077a6.325,6.325,0,0,0,1.178,3.809c-.321,2.728-1.778,5.1-3.3,7.337-1.535,1.978-4.234,5.174-6.034,5.174-1.406,0-1.451-3.49-1.451-4.443a17.263,17.263,0,0,1,.68-5.031,12.518,12.518,0,0,0,.816-2.629c0-.589-.59-.726-1.043-.726-.861,0-1.224.681-1.542,1.36-.861,1.86-4.669,9.883-6.71,9.883-.544,0-.59-.725-.59-1.087a12.7,12.7,0,0,1,3.853-8.887,20.086,20.086,0,0,1,4.444-3.354c.226-.136.453-.272.453-.543a1.732,1.732,0,0,0-1.5-1.406c-4.586,0-8.894,6.2-9.979,10.955-1.063,1.668-2.392,3.417-4.072,3.417-1.814,0-2.086-4.261-2.086-5.577a78.817,78.817,0,0,1,1.088-12.241,24.959,24.959,0,0,0,.454-4.079c0-.771,0-1.905-1.043-1.905a3.134,3.134,0,0,0-1.089.226c-1.088.454-1.27,2.267-1.5,3.31a26.482,26.482,0,0,1-1.95,4.714c-1.5,3.309-3.083,6.527-4.76,9.747-1.134,2.176-2.267,4.352-3.581,6.437-.318.453-1.179,1.9-1.768,1.9-.725,0-.771-2.947-.771-4.759.137-19.221.137-20.174.137-20.944,0-1.678-.273-3.763-1-4.126a3.043,3.043,0,0,0-1.27-.272c-.907,0-3.4,1.041-3.4,2.13a.577.577,0,0,0,.045.272,11.509,11.509,0,0,1,.5,3.718c0,5.712-5.078,27.473-12.331,27.473l-1.949-.226a.871.871,0,0,0-.861.906c0,1.089,1.269,1.179,2.086,1.179,7.435,0,10.789-11.153,12.784-17.681.045-.091.136-.453.226-.453s.092.362.092.408c0,4.307.045,11.015,1.632,14.96a2.76,2.76,0,0,0,2.448,2c4.67,0,11.561-17.182,12.331-17.455a.17.17,0,0,1,.045.137c0,3.219.045,12.829,4.715,12.829,1.511,0,3.2-1.3,4.64-2.893.182,1.671.839,3.664,2.654,3.664,2.4,0,5.168-4.126,6.347-5.984,0,2.13.362,7.027,3.354,7.027,2.939,0,5.994-3.538,7.762-5.934a26.287,26.287,0,0,0,3.842-7.531c1.315.409,2.675,1.315,2.675,2.811,0,1.677-.226,3.31-.226,4.988,0,2.13.181,6.346,3.173,6.346,2.438,0,6.054-3.774,8.009-6.378,1.832-2.067,3.147-5.276,4.048-7.767,1.315.409,2.675,1.315,2.675,2.811,0,1.677-.226,3.31-.226,4.988,0,2.13.181,6.346,3.173,6.346,2.258,0,5.527-3.238,7.552-5.786.179,1.326.767,2.567,2.376,2.567,2.992,0,8.976-6.846,10.472-9.34.09,2.358.136,4.671.136,7.027,0,.862,0,1.724-.045,2.584-4.669,3.083-11.878,9.066-11.878,15.143,0,2.4,1.043,4.9,3.809,4.9,2.9,0,5.348-2.312,6.845-4.624,4.443-6.891,4.716-16.275,4.716-24.39,0-1.089,0-4.533-.726-5.033A1.7,1.7,0,0,0,221.587,238.733Zm-6.3,29.74c-.815,1.041-2.221,2.72-3.672,2.72s-1.769-1.769-1.769-2.9c0-5.35,5.8-10.2,9.657-13.284C219.094,258.952,217.643,265.3,215.285,268.473Z" transform="translate(609.022 -1453.096)"/><path class="a" d="M358.691,245.717c-.635,0-1.089.723-1.36,1.175-1.814,3.028-4.852,6.282-8.659,6.282-2.131,0-2.947-1.266-2.947-3.3a9.057,9.057,0,0,1,.226-1.9c2.765-.993,7.027-5.786,7.027-8.814a2.451,2.451,0,0,0-2.539-2.712c-4.27,0-7.332,6.565-8.045,10.943-1.11,1.788-2.531,3.884-4.373,3.884-1.813,0-2.085-4.249-2.085-5.56a78.2,78.2,0,0,1,1.089-12.2,24.884,24.884,0,0,0,.453-4.067c0-.769,0-1.9-1.043-1.9a3.135,3.135,0,0,0-1.087.226c-1.089.453-1.27,2.261-1.5,3.3a26.41,26.41,0,0,1-1.95,4.7c-1.5,3.3-3.083,6.508-4.759,9.718-1.134,2.169-2.267,4.339-3.582,6.418-.317.452-1.177,1.9-1.768,1.9-.725,0-.77-2.938-.77-4.745.136-19.164.136-20.114.136-20.882,0-1.673-.272-3.752-1-4.114a3.053,3.053,0,0,0-1.27-.271c-.906,0-3.4,1.038-3.4,2.124a.574.574,0,0,0,.045.271,11.442,11.442,0,0,1,.5,3.707c0,5.695-5.077,27.391-12.331,27.391l-1.95-.226a.869.869,0,0,0-.86.9c0,1.085,1.27,1.175,2.085,1.175,7.435,0,10.79-11.12,12.784-17.628.045-.091.136-.452.226-.452s.09.361.09.407c0,4.294.045,10.983,1.632,14.916a2.759,2.759,0,0,0,2.448,1.989c4.669,0,11.561-17.131,12.331-17.4a.17.17,0,0,1,.045.137c0,3.209.045,12.791,4.714,12.791,1.669,0,3.56-1.587,5.084-3.389.369,2.633,1.865,4.79,4.931,4.79,4.941,0,9.293-3.616,11.651-7.729a2.384,2.384,0,0,0,.408-1.356C359.325,245.9,358.963,245.717,358.691,245.717Zm-8.477-7.141c.589,0,.77.542.77,1.04,0,2.395-2.947,5.468-4.9,6.643C346.36,244.677,348.4,238.576,350.214,238.576Z" transform="translate(540.675 -1453.466)"/><path class="a" d="M283.718,205.653a.428.428,0,1,0-.594.166A.434.434,0,0,0,283.718,205.653Z" transform="translate(547.889 -1446.966)"/><path class="a" d="M221.587,238.733c-.726,0-1.225.771-1.633,1.27a96.915,96.915,0,0,1-6.618,8.206c-.545.543-2.448,2.447-3.173,2.447-.454,0-.454-.679-.454-.951a18.546,18.546,0,0,1,.937-4.314c1.181-1.5,2.286-3.061,3.326-4.658a72.834,72.834,0,0,0,4.869-8.885l1.982-4.653c.55-1.6,1.139-3.173,1.649-4.776-.782,1.5-1.485,3.018-2.227,4.521l-2.292,4.467c-1.631,2.917-3.215,5.856-5.063,8.628-.178.279-.377.543-.558.819a3.156,3.156,0,0,0,.232-.986,1.946,1.946,0,0,0-1.949-1.859,1.9,1.9,0,0,0-1.723,1.27A11.008,11.008,0,0,0,208.3,241a34.357,34.357,0,0,0-1.461,6.213c-.042.06-.088.123-.125.178-1.177,1.768-4.9,6.483-6.98,6.483-.862,0-.862-1.089-.862-1.678a27.848,27.848,0,0,1,.907-6.393,7.875,7.875,0,0,0,.226-1.768c0-4.035-3.99-4.216-5.395-6.346a17.619,17.619,0,0,0,.136-2.176c0-.907-.226-3.536-1.5-3.536-1.813,0-2.675,3.672-2.675,5.077a6.33,6.33,0,0,0,1.179,3.809c-.331,2.82-1.878,5.259-3.458,7.563-1.58,2.112-4.487,5.449-6.242,5.449-.862,0-.862-1.089-.862-1.678a27.848,27.848,0,0,1,.907-6.393,7.875,7.875,0,0,0,.226-1.768c0-4.035-3.99-4.216-5.395-6.346a17.619,17.619,0,0,0,.136-2.176c0-.907-.226-3.536-1.5-3.536-1.813,0-2.675,3.672-2.675,5.077a6.325,6.325,0,0,0,1.178,3.809c-.321,2.728-1.778,5.1-3.3,7.337-1.535,1.978-4.234,5.174-6.034,5.174-1.406,0-1.451-3.49-1.451-4.443a17.263,17.263,0,0,1,.68-5.031,12.518,12.518,0,0,0,.816-2.629c0-.589-.59-.726-1.043-.726-.861,0-1.224.681-1.542,1.36-.861,1.86-4.669,9.883-6.71,9.883-.544,0-.59-.725-.59-1.087a12.7,12.7,0,0,1,3.853-8.887,20.086,20.086,0,0,1,4.444-3.354c.226-.136.453-.272.453-.543a1.732,1.732,0,0,0-1.5-1.406c-4.586,0-8.894,6.2-9.979,10.955-1.063,1.668-2.392,3.417-4.072,3.417-1.814,0-2.086-4.261-2.086-5.577a78.817,78.817,0,0,1,1.088-12.241,24.959,24.959,0,0,0,.454-4.079c0-.771,0-1.905-1.043-1.905a3.134,3.134,0,0,0-1.089.226c-1.088.454-1.27,2.267-1.5,3.31a26.482,26.482,0,0,1-1.95,4.714c-1.5,3.309-3.083,6.527-4.76,9.747-1.134,2.176-2.267,4.352-3.581,6.437-.318.453-1.179,1.9-1.768,1.9-.725,0-.771-2.947-.771-4.759.137-19.221.137-20.174.137-20.944,0-1.678-.273-3.763-1-4.126a3.043,3.043,0,0,0-1.27-.272c-.907,0-3.4,1.041-3.4,2.13a.577.577,0,0,0,.045.272,11.509,11.509,0,0,1,.5,3.718c0,5.712-5.078,27.473-12.331,27.473l-1.949-.226a.871.871,0,0,0-.861.906c0,1.089,1.269,1.179,2.086,1.179,7.435,0,10.789-11.153,12.784-17.681.045-.091.136-.453.226-.453s.092.362.092.408c0,4.307.045,11.015,1.632,14.96a2.76,2.76,0,0,0,2.448,2c4.67,0,11.561-17.182,12.331-17.455a.17.17,0,0,1,.045.137c0,3.219.045,12.829,4.715,12.829,1.511,0,3.2-1.3,4.64-2.893.182,1.671.839,3.664,2.654,3.664,2.4,0,5.168-4.126,6.347-5.984,0,2.13.362,7.027,3.354,7.027,2.939,0,5.994-3.538,7.762-5.934a26.287,26.287,0,0,0,3.842-7.531c1.315.409,2.675,1.315,2.675,2.811,0,1.677-.226,3.31-.226,4.988,0,2.13.181,6.346,3.173,6.346,2.438,0,6.054-3.774,8.009-6.378,1.832-2.067,3.147-5.276,4.048-7.767,1.315.409,2.675,1.315,2.675,2.811,0,1.677-.226,3.31-.226,4.988,0,2.13.181,6.346,3.173,6.346,2.258,0,5.527-3.238,7.552-5.786.179,1.326.767,2.567,2.376,2.567,2.992,0,8.976-6.846,10.472-9.34.09,2.358.136,4.671.136,7.027,0,.862,0,1.724-.045,2.584-4.669,3.083-11.878,9.066-11.878,15.143,0,2.4,1.043,4.9,3.809,4.9,2.9,0,5.348-2.312,6.845-4.624,4.443-6.891,4.716-16.275,4.716-24.39,0-1.089,0-4.533-.726-5.033A1.7,1.7,0,0,0,221.587,238.733Zm-6.3,29.74c-.815,1.041-2.221,2.72-3.672,2.72s-1.769-1.769-1.769-2.9c0-5.35,5.8-10.2,9.657-13.284C219.094,258.952,217.643,265.3,215.285,268.473Z" transform="translate(609.022 -1453.096)"/><path class="a" d="M358.691,245.717c-.635,0-1.089.723-1.36,1.175-1.814,3.028-4.852,6.282-8.659,6.282-2.131,0-2.947-1.266-2.947-3.3a9.057,9.057,0,0,1,.226-1.9c2.765-.993,7.027-5.786,7.027-8.814a2.451,2.451,0,0,0-2.539-2.712c-4.27,0-7.332,6.565-8.045,10.943-1.11,1.788-2.531,3.884-4.373,3.884-1.813,0-2.085-4.249-2.085-5.56a78.2,78.2,0,0,1,1.089-12.2,24.884,24.884,0,0,0,.453-4.067c0-.769,0-1.9-1.043-1.9a3.135,3.135,0,0,0-1.087.226c-1.089.453-1.27,2.261-1.5,3.3a26.41,26.41,0,0,1-1.95,4.7c-1.5,3.3-3.083,6.508-4.759,9.718-1.134,2.169-2.267,4.339-3.582,6.418-.317.452-1.177,1.9-1.768,1.9-.725,0-.77-2.938-.77-4.745.136-19.164.136-20.114.136-20.882,0-1.673-.272-3.752-1-4.114a3.053,3.053,0,0,0-1.27-.271c-.906,0-3.4,1.038-3.4,2.124a.574.574,0,0,0,.045.271,11.442,11.442,0,0,1,.5,3.707c0,5.695-5.077,27.391-12.331,27.391l-1.95-.226a.869.869,0,0,0-.86.9c0,1.085,1.27,1.175,2.085,1.175,7.435,0,10.79-11.12,12.784-17.628.045-.091.136-.452.226-.452s.09.361.09.407c0,4.294.045,10.983,1.632,14.916a2.759,2.759,0,0,0,2.448,1.989c4.669,0,11.561-17.131,12.331-17.4a.17.17,0,0,1,.045.137c0,3.209.045,12.791,4.714,12.791,1.669,0,3.56-1.587,5.084-3.389.369,2.633,1.865,4.79,4.931,4.79,4.941,0,9.293-3.616,11.651-7.729a2.384,2.384,0,0,0,.408-1.356C359.325,245.9,358.963,245.717,358.691,245.717Zm-8.477-7.141c.589,0,.77.542.77,1.04,0,2.395-2.947,5.468-4.9,6.643C346.36,244.677,348.4,238.576,350.214,238.576Z" transform="translate(540.675 -1453.466)"/></g></svg>