<svg xmlns="http://www.w3.org/2000/svg" width="31.5" height="20.25" viewBox="0 0 31.5 20.25"><defs><style>.a{fill:rgba(56,54,54,0.85);}</style></defs><path class="a" d="M23.727,16.313a4.219,4.219,0,1,0-4.3-4.219A4.27,4.27,0,0,0,23.727,16.313Zm-11.454,0a4.219,4.219,0,1,0-4.3-4.219A4.27,4.27,0,0,0,12.273,16.313Zm0,3.094c-3.365,0-10.023,1.617-10.023,4.922v3.8H22.5v-3.8C22.5,21.023,15.638,19.406,12.273,19.406Zm11.454.774a7.641,7.641,0,0,0-1.227.07c1.647,1.2,2.25,1.969,2.25,4.078v3.8h9v-3.8C33.75,21.023,27.092,20.18,23.727,20.18Z" transform="translate(-2.25 -7.875)"/></svg>