<svg xmlns="http://www.w3.org/2000/svg" width="36" height="30.377" viewBox="0 0 36 30.377"><defs><style>.a{fill:rgba(56,54,54,0.85);}</style></defs><path class="a" d="M9.816,2.5a.844.844,0,0,0-1.2,0L4.144,6.948l-1.6-1.555a.844.844,0,0,0-1.2,0L.248,6.5a.844.844,0,0,0,0,1.2l3.346,3.333a.9.9,0,0,0,1.238,0l1.1-1.1,5.077-5.076a.85.85,0,0,0,.006-1.2Zm0,11.193a.844.844,0,0,0-1.2,0l-4.477,4.48-1.6-1.554a.844.844,0,0,0-1.2,0l-1.1,1.1a.844.844,0,0,0,0,1.2l3.338,3.34a.9.9,0,0,0,1.238,0l1.1-1.1L11,16.073a.844.844,0,0,0,.006-1.188ZM4.5,25.875a3.375,3.375,0,1,0,0,6.75,3.375,3.375,0,1,0,0-6.75ZM34.875,27H14.625A1.125,1.125,0,0,0,13.5,28.125v2.25A1.125,1.125,0,0,0,14.625,31.5h20.25A1.125,1.125,0,0,0,36,30.375v-2.25A1.125,1.125,0,0,0,34.875,27Zm0-22.5H14.625A1.125,1.125,0,0,0,13.5,5.625v2.25A1.125,1.125,0,0,0,14.625,9h20.25A1.125,1.125,0,0,0,36,7.875V5.625A1.125,1.125,0,0,0,34.875,4.5Zm0,11.25H14.625A1.125,1.125,0,0,0,13.5,16.875v2.25a1.125,1.125,0,0,0,1.125,1.125h20.25A1.125,1.125,0,0,0,36,19.125v-2.25A1.125,1.125,0,0,0,34.875,15.75Z" transform="translate(0 -2.248)"/></svg>